<svg width="28" height="18" viewBox="0 0 28 18" fill="none" xmlns="http://www.w3.org/2000/svg">
<path fill-rule="evenodd" clip-rule="evenodd" d="M25.759 7.38461H2.2391C1.51782 7.38461 0.932434 8.00492 0.932434 8.76923C0.932434 9.53353 1.51782 10.1538 2.2391 10.1538H25.759C26.4803 10.1538 27.0658 9.53353 27.0658 8.76923C27.0658 8.00492 26.4803 7.38461 25.759 7.38461ZM25.759 14.7693H2.2391C1.51782 14.7693 0.932434 15.3896 0.932434 16.1539C0.932434 16.9182 1.51782 17.5385 2.2391 17.5385H25.759C26.4803 17.5385 27.0658 16.9182 27.0658 16.1539C27.0658 15.3896 26.4803 14.7693 25.759 14.7693ZM2.23955 2.76923H25.7596C26.4809 2.76923 27.0662 2.14892 27.0662 1.38462C27.0662 0.620308 26.4809 0 25.7596 0H2.23955C1.51827 0 0.932889 0.620308 0.932889 1.38462C0.932889 2.14892 1.51827 2.76923 2.23955 2.76923Z" fill="#37474F"/>
</svg>
