<svg width="60" height="60" viewBox="0 0 60 60" fill="none" xmlns="http://www.w3.org/2000/svg">
<path d="M46.2538 60H13.7461C6.15421 60 0 53.8456 0 46.2538V13.7461C0 6.15439 6.15421 0 13.7461 0H46.2538C53.8456 0 60 6.15439 60 13.7461V46.2538C60 53.8456 53.8456 60 46.2538 60Z" fill="#FFC107"/>
<path d="M46.2538 60H13.7461C6.15421 60 0 53.8456 0 46.2538V13.7461C0 6.15439 6.15421 0 13.7461 0H46.2538C53.8456 0 60 6.15439 60 13.7461V46.2538C60 53.8456 53.8456 60 46.2538 60Z" fill="url(#paint0_linear)"/>
<path d="M29.8493 23.568C29.8392 22.9531 29.78 22.3502 29.6742 21.7636H29.674C29.5705 21.7842 29.4704 21.7194 29.4504 21.6188C29.4305 21.5184 29.4981 21.4203 29.6016 21.3997C29.4728 20.8021 29.2968 20.222 29.0766 19.6641L29.0757 19.6646C28.9778 19.7052 28.867 19.6612 28.8278 19.5665C28.7885 19.4718 28.8359 19.3624 28.9333 19.322L28.9338 19.3218C28.6915 18.7639 28.4049 18.2295 28.0781 17.7234C27.9905 17.7817 27.8737 17.7601 27.8167 17.675C27.7601 17.5902 27.7847 17.4743 27.8715 17.4154C27.526 16.9174 27.1411 16.4491 26.7207 16.0147C26.6461 16.0877 26.5281 16.089 26.4563 16.0171C26.3843 15.9453 26.3857 15.8273 26.4587 15.7526C26.0243 15.3323 25.556 14.9474 25.0579 14.6018C24.9989 14.6886 24.8832 14.7132 24.7984 14.6566C24.7132 14.5997 24.6917 14.4828 24.75 14.3952C24.2439 14.0684 23.7094 13.7819 23.1516 13.5396L23.1514 13.54C23.111 13.6374 23.0016 13.6846 22.9068 13.6455C22.8121 13.6063 22.7681 13.4955 22.8086 13.398L22.8093 13.3968C22.2514 13.1765 21.6712 13.0006 21.0736 12.8718C21.0531 12.9753 20.955 13.0428 20.8546 13.023C20.7539 13.0029 20.6892 12.9028 20.7098 12.7993C20.1231 12.6933 19.5202 12.6341 18.9054 12.624C18.9042 12.7283 18.8218 12.8128 18.7202 12.8128C18.6183 12.8128 18.5361 12.7283 18.5348 12.624C17.9199 12.6341 17.3171 12.6933 16.7304 12.7993C16.751 12.9028 16.6862 13.0029 16.5856 13.023C16.4852 13.0428 16.3871 12.9753 16.3665 12.8718C15.7689 13.0006 15.1888 13.1765 14.6311 13.3968L14.6316 13.398C14.672 13.4955 14.628 13.6063 14.5333 13.6455C14.4386 13.6846 14.3292 13.6374 14.2888 13.54L14.2886 13.5396C13.7307 13.7819 13.1963 14.0684 12.6903 14.3952C12.7485 14.4828 12.7269 14.5997 12.6418 14.6566C12.557 14.7132 12.4412 14.6886 12.3823 14.6018C11.8844 14.9474 11.4158 15.3323 10.9815 15.7526C11.0545 15.8273 11.0558 15.9453 10.9839 16.0171C10.9121 16.089 10.7941 16.0877 10.7194 16.0147C10.2993 16.4491 9.91415 16.9174 9.56863 17.4154C9.65544 17.4744 9.68007 17.5902 9.6234 17.675C9.56661 17.7601 9.44967 17.7817 9.36202 17.7234C9.03523 18.2295 8.74888 18.7639 8.50635 19.3218L8.50684 19.322C8.60428 19.3624 8.65165 19.4718 8.61237 19.5665C8.5731 19.6612 8.46234 19.7052 8.36494 19.6648L8.36409 19.6644C8.14332 20.222 7.96736 20.8021 7.83857 21.3997C7.94208 21.4203 8.00983 21.5184 7.98977 21.6188C7.96971 21.7194 7.8696 21.7842 7.76629 21.7636H7.76613C7.66011 22.3502 7.60093 22.9531 7.59082 23.568C7.69518 23.5692 7.7796 23.6516 7.7796 23.7532C7.7796 23.855 7.69518 23.9372 7.59082 23.9386C7.60093 24.5534 7.66011 25.1563 7.76613 25.743H7.76629C7.8696 25.7224 7.96971 25.7871 7.98977 25.8878C8.00983 25.9882 7.94208 26.0863 7.83857 26.1068C7.96736 26.7045 8.14332 27.2846 8.3636 27.8423L8.36494 27.8418C8.46234 27.8013 8.5731 27.8453 8.61237 27.9401C8.65165 28.0348 8.60428 28.1441 8.50684 28.1846L8.50635 28.1848C8.74888 28.7426 9.03523 29.2771 9.36202 29.7832C9.44967 29.7249 9.56661 29.7464 9.6234 29.8316C9.68003 29.9163 9.65544 30.0321 9.56863 30.0911C9.91415 30.5892 10.2993 31.0575 10.7194 31.4918C10.7941 31.4188 10.9121 31.4175 10.9839 31.4895C11.0558 31.5613 11.0545 31.6793 10.9815 31.7539C11.4158 32.1741 11.8842 32.5592 12.3823 32.9047C12.4412 32.8179 12.557 32.7933 12.6418 32.8499C12.7269 32.9067 12.7485 33.0237 12.6902 33.1113C13.1963 33.4381 13.7307 33.7245 14.2886 33.967L14.2888 33.9665C14.3292 33.8691 14.4386 33.8217 14.5333 33.861C14.628 33.9002 14.672 34.011 14.6316 34.1086L14.6311 34.1097C15.1888 34.3301 15.7689 34.506 16.3665 34.6347C16.3871 34.5313 16.4852 34.4635 16.5856 34.4836C16.6862 34.5037 16.751 34.6037 16.7304 34.7071V34.7072C17.3171 34.8132 17.9199 34.8724 18.5348 34.8825C18.5361 34.778 18.6183 34.6937 18.7202 34.6937C18.8218 34.6937 18.9042 34.778 18.9054 34.8825C19.5202 34.8724 20.1231 34.8132 20.7098 34.7072V34.7071C20.6892 34.6037 20.7539 34.5037 20.8546 34.4836C20.955 34.4635 21.0531 34.5313 21.0736 34.6347C21.6712 34.506 22.2514 34.3301 22.8093 34.1097L22.8086 34.1086C22.7681 34.011 22.8121 33.9002 22.9068 33.861C23.0016 33.8217 23.111 33.8691 23.1514 33.9665L23.1516 33.967C23.7094 33.7245 24.2439 33.4381 24.75 33.1113C24.6917 33.0237 24.7132 32.9067 24.7984 32.8499C24.8832 32.7933 24.9991 32.8179 25.0579 32.9047C25.556 32.5592 26.0243 32.1741 26.4587 31.7539C26.3857 31.6793 26.3843 31.5613 26.4563 31.4895C26.5281 31.4175 26.6461 31.4188 26.7207 31.4918C27.1411 31.0575 27.526 30.5892 27.8715 30.0911C27.7847 30.0321 27.7601 29.9163 27.8167 29.8316C27.8737 29.7464 27.9905 29.7249 28.0781 29.783C28.4049 29.2771 28.6915 28.7426 28.9338 28.1846H28.9333C28.8359 28.1441 28.7885 28.0348 28.8278 27.9401C28.867 27.8453 28.9778 27.8013 29.0754 27.8418L29.0766 27.8423C29.2968 27.2846 29.4728 26.7045 29.6016 26.1068C29.4981 26.0863 29.4305 25.9882 29.4504 25.8878C29.4704 25.7871 29.5705 25.7224 29.674 25.743H29.6742C29.78 25.1563 29.8392 24.5534 29.8493 23.9386C29.7448 23.9372 29.6605 23.855 29.6605 23.7532C29.6605 23.6516 29.7448 23.5692 29.8493 23.568Z" fill="#231F20"/>
<path d="M29.6605 23.7531C29.6605 23.6515 29.7448 23.5691 29.8493 23.568C29.8392 22.953 29.7798 22.3502 29.674 21.7634C29.5705 21.7841 29.4702 21.7192 29.4503 21.6188C29.4303 21.5183 29.4978 21.4202 29.6014 21.3995C29.4728 20.8019 29.2968 20.2217 29.0763 19.6641L29.0757 19.6646C28.9778 19.705 28.867 19.661 28.8278 19.5665C28.7885 19.4718 28.8357 19.3622 28.9333 19.3219L28.9337 19.3217C28.6912 18.7637 28.4049 18.2295 28.0781 17.7234C27.9905 17.7815 27.8735 17.7599 27.8167 17.675C27.7601 17.5902 27.7847 17.4742 27.8715 17.4154C27.5258 16.9174 27.1408 16.4488 26.7207 16.0145C26.646 16.0877 26.528 16.089 26.4561 16.017C26.3841 15.9451 26.3855 15.8273 26.4586 15.7525C26.0243 15.3323 25.5557 14.9473 25.0577 14.6017C24.9989 14.6884 24.8831 14.7131 24.7982 14.6564C24.7132 14.5997 24.6916 14.4827 24.7498 14.395C24.2439 14.0684 23.7094 13.7819 23.1513 13.5395L23.1512 13.5399C23.1109 13.6374 23.0013 13.6846 22.9066 13.6454C22.8121 13.6063 22.7681 13.4954 22.8084 13.3979L22.8091 13.3968C22.2513 13.1763 21.6713 13.0004 21.0736 12.8718C21.053 12.9752 20.9548 13.0428 20.8543 13.0228C20.7539 13.0029 20.6892 12.9028 20.7097 12.7993V12.7991C20.1231 12.6933 19.5202 12.634 18.9053 12.624C18.904 12.7283 18.8216 12.8126 18.7199 12.8126C18.6183 12.8126 18.5359 12.7283 18.5347 12.624C17.9199 12.634 17.317 12.6933 16.7302 12.7991L16.7304 12.7993C16.7509 12.9028 16.686 13.0029 16.5856 13.0228C16.4851 13.0428 16.387 12.9752 16.3663 12.8718C15.7687 13.0004 15.1887 13.1763 14.6308 13.3968L14.6315 13.3979C14.6718 13.4954 14.6278 13.6063 14.5333 13.6454C14.4385 13.6846 14.329 13.6374 14.2887 13.5399L14.2885 13.5395C13.7305 13.7819 13.1962 14.0684 12.6901 14.395C12.7484 14.4827 12.7267 14.5997 12.6417 14.6564C12.557 14.7131 12.441 14.6884 12.3822 14.6017C11.8842 14.9473 11.4158 15.3323 10.9813 15.7525C11.0545 15.8273 11.0558 15.9451 10.9838 16.017C10.9119 16.089 10.7941 16.0877 10.7192 16.0145C10.2991 16.4488 9.91411 16.9174 9.5686 17.4154C9.65524 17.4742 9.67983 17.5902 9.6232 17.675C9.56641 17.7599 9.44964 17.7815 9.36182 17.7234C9.03519 18.2295 8.74869 18.7637 8.50632 19.3217L8.5068 19.3219C8.60424 19.3622 8.65141 19.4718 8.61233 19.5665C8.57305 19.661 8.46214 19.705 8.36474 19.6647L8.36405 19.6643C8.14312 20.2217 7.96716 20.8019 7.83857 21.3995C7.94204 21.4201 8.00964 21.5183 7.98957 21.6188C7.96967 21.7192 7.86956 21.7841 7.76609 21.7634H7.76593C7.66007 22.3502 7.60073 22.953 7.59082 23.568C7.69514 23.5691 7.7794 23.6515 7.7794 23.7531C7.7794 23.855 7.69514 23.9372 7.59082 23.9386C7.60073 24.5534 7.66007 25.1561 7.76593 25.743H7.76609C7.86956 25.7224 7.96967 25.7871 7.98957 25.8875C8.00964 25.988 7.94204 26.0863 7.83857 26.1068C7.96716 26.7045 8.14312 27.2846 8.36357 27.8423L8.36474 27.8416C8.46214 27.8013 8.57305 27.8453 8.61233 27.9401C8.65141 28.0346 8.60424 28.1442 8.5068 28.1844L8.50632 28.1846C8.74869 28.7426 9.03519 29.2771 9.36182 29.783C9.44948 29.7249 9.56641 29.7464 9.6232 29.8314C9.67983 29.9163 9.65524 30.0321 9.5686 30.0909C9.91411 30.5889 10.2991 31.0575 10.7192 31.4918C10.7941 31.4187 10.9119 31.4173 10.9838 31.4893C11.0558 31.5613 11.0545 31.6792 10.9813 31.7539C11.4156 32.1741 11.8842 32.559 12.3822 32.9047C12.441 32.8179 12.557 32.7933 12.6417 32.8499C12.7267 32.9067 12.7483 33.0237 12.6901 33.1113C13.1962 33.4381 13.7305 33.7245 14.2885 33.967L14.2887 33.9665C14.329 33.8689 14.4385 33.8217 14.5333 33.861C14.6278 33.9001 14.6718 34.011 14.6315 34.1084L14.6308 34.1096C15.1887 34.3301 15.7687 34.506 16.3663 34.6346C16.387 34.5311 16.4851 34.4635 16.5856 34.4836C16.686 34.5034 16.7509 34.6036 16.7304 34.7071L16.7302 34.7072C17.317 34.8131 17.9199 34.8724 18.5347 34.8823C18.5359 34.778 18.6183 34.6937 18.7199 34.6937C18.8216 34.6937 18.904 34.778 18.9053 34.8823C19.5202 34.8724 20.1231 34.8131 20.7097 34.7072V34.7071C20.6892 34.6036 20.7539 34.5034 20.8543 34.4836C20.9548 34.4635 21.053 34.5311 21.0736 34.6346C21.6713 34.506 22.2513 34.3301 22.8091 34.1096L22.8084 34.1084C22.7681 34.011 22.8121 33.9001 22.9066 33.861C23.0013 33.8217 23.1109 33.8689 23.1512 33.9665L23.1513 33.967C23.7094 33.7245 24.2439 33.4381 24.7498 33.1113C24.6916 33.0237 24.7132 32.9067 24.7982 32.8499C24.8831 32.7933 24.9989 32.8179 25.0577 32.9047C25.5557 32.559 26.0243 32.1741 26.4586 31.7539C26.3855 31.6792 26.3841 31.5613 26.4561 31.4893C26.528 31.4173 26.646 31.4187 26.7207 31.4918C27.1408 31.0575 27.5258 30.5889 27.8715 30.0909C27.7847 30.0321 27.7601 29.9163 27.8167 29.8314C27.8735 29.7464 27.9905 29.7249 28.0781 29.783C28.4049 29.2769 28.6912 28.7426 28.9337 28.1846L28.9333 28.1844C28.8357 28.1442 28.7885 28.0346 28.8278 27.9401C28.867 27.8453 28.9778 27.8013 29.0752 27.8416L29.0763 27.8423C29.2968 27.2846 29.4728 26.7045 29.6014 26.1068C29.4978 26.0861 29.4303 25.988 29.4503 25.8875C29.4702 25.7871 29.5704 25.7224 29.6738 25.743H29.674C29.7798 25.1561 29.8392 24.5534 29.8493 23.9386C29.7448 23.9372 29.6605 23.855 29.6605 23.7531Z" fill="#37474F"/>
<path d="M23.9369 27.5507C23.6245 27.9791 22.9832 27.9749 22.6714 27.546L21.305 25.6652C21.0706 25.3425 21.0168 24.9279 21.141 24.5488C21.1451 24.5367 21.149 24.5244 21.1528 24.5122C21.2686 24.1386 21.5627 23.847 21.9348 23.7262L24.1461 23.0077C24.6483 22.8444 25.1717 23.2143 25.1725 23.7424V23.7531C25.1725 25.1727 24.7139 26.4852 23.9369 27.5507ZM20.7101 29.893C20.0831 30.0963 19.414 30.2062 18.7193 30.2062C18.0246 30.2062 17.3556 30.0963 16.7287 29.893C16.2202 29.7282 16.0185 29.1172 16.3326 28.6849L17.6999 26.8028C17.9339 26.481 18.3104 26.3004 18.7085 26.3021H18.7302C19.1282 26.3004 19.5047 26.481 19.7386 26.8028L21.106 28.6849C21.4201 29.1172 21.2184 29.7283 20.7101 29.893ZM18.7193 31.0258C18.5555 31.0258 18.4225 30.8928 18.4225 30.729C18.4225 30.565 18.5555 30.432 18.7193 30.432C18.8833 30.432 19.0162 30.565 19.0162 30.729C19.0162 30.8928 18.8833 31.0258 18.7193 31.0258ZM14.7674 27.546C14.4556 27.9749 13.8141 27.9791 13.5018 27.5507C12.7249 26.4852 12.2663 25.1727 12.2663 23.7531C12.2663 23.7496 12.2663 23.7461 12.2663 23.7424C12.2671 23.2143 12.7904 22.8444 13.2927 23.0077L15.5039 23.7262C15.8784 23.8479 16.1695 24.1438 16.2881 24.5191C16.2935 24.5362 16.299 24.553 16.3048 24.57C16.4294 24.9405 16.3634 25.3489 16.1338 25.6652L14.7674 27.546ZM13.5028 19.9543C14.296 18.8668 15.4208 18.037 16.7287 17.6131C17.2338 17.4494 17.7514 17.8293 17.7514 18.3604V20.6873C17.7514 21.0813 17.5592 21.4494 17.2387 21.6788C17.2259 21.6879 17.2132 21.6971 17.2006 21.7066C16.8857 21.9412 16.4759 22.0064 16.1025 21.885L13.8911 21.1666C13.3818 21.0011 13.1873 20.3869 13.5028 19.9543ZM18.7193 22.4546C19.4366 22.4546 20.0181 23.0358 20.0181 23.7531C20.0181 24.4704 19.4366 25.0519 18.7193 25.0519C18.0021 25.0519 17.4207 24.4704 17.4207 23.7531C17.4207 23.0358 18.0021 22.4546 18.7193 22.4546ZM19.6874 18.3604C19.6874 17.8293 20.205 17.4494 20.7101 17.6133C22.0179 18.037 23.1428 18.867 23.9359 19.9543C24.2514 20.3869 24.0569 21.0011 23.5476 21.1666L21.3444 21.8823C20.9678 22.0047 20.553 21.9418 20.2358 21.7049C20.2262 21.6976 20.2164 21.6906 20.2066 21.6835C19.8844 21.4516 19.6874 21.0841 19.6874 20.6872V18.3604ZM18.7193 16.332C14.6207 16.332 11.2983 19.6546 11.2983 23.7531C11.2983 27.8517 14.6207 31.1743 18.7193 31.1743C22.8178 31.1743 26.1404 27.8517 26.1404 23.7531C26.1404 19.6546 22.8178 16.332 18.7193 16.332Z" fill="white"/>
<path d="M40.8934 22.3429L48.5314 32.9265H44.3887L38.5632 24.8254L35.3269 28.2227V32.9265H31.7021V14.6338H35.3269V23.2575H35.4564L43.6121 14.6338H48.0135L40.8934 22.3429Z" fill="#37474F"/>
<path d="M13.6988 40.2941H13.5527L12.6763 42.9233H14.5752L13.6988 40.2941ZM11.2156 47.1593H7.70996L11.6539 36.9346H15.5976L19.5416 47.1593H16.0359L15.5246 45.5525H11.7269L11.2156 47.1593Z" fill="#37474F"/>
<path d="M23.1945 43.0694C23.1945 44.1795 23.9103 44.8952 24.9475 44.8952C25.9845 44.8952 26.7001 44.1795 26.7001 43.0694V36.9346H29.9139V43.0694C29.9139 45.5527 28.0294 47.4516 24.9475 47.4516C21.8654 47.4516 19.981 45.5527 19.981 43.0694V36.9346H23.1945V43.0694Z" fill="#37474F"/>
<path d="M40.5779 36.9346V39.7097H37.5103V47.1593H34.2969V39.7097H31.2295V36.9346H40.5779Z" fill="#37474F"/>
<path d="M46.7132 44.8954C47.9547 44.8954 49.0503 43.8 49.0503 42.0471C49.0503 40.2943 47.9547 39.1988 46.7132 39.1988C45.4716 39.1988 44.3761 40.2943 44.3761 42.0471C44.3761 43.8 45.4716 44.8954 46.7132 44.8954ZM46.7132 47.4517C43.3537 47.4517 41.0166 45.1147 41.0166 42.0471C41.0166 38.9797 43.3537 36.6426 46.7132 36.6426C50.0727 36.6426 52.4098 38.9797 52.4098 42.0471C52.4098 45.1147 50.0727 47.4517 46.7132 47.4517Z" fill="#37474F"/>
<defs>
<linearGradient id="paint0_linear" x1="60" y1="0" x2="60" y2="60" gradientUnits="userSpaceOnUse">
<stop stop-color="#FFE200"/>
<stop offset="1" stop-color="#FFC107"/>
</linearGradient>
</defs>
</svg>
